<svg width="249" height="265" viewBox="0 0 249 265" fill="none" xmlns="http://www.w3.org/2000/svg">
<path d="M36.3778 61.606C37.1385 55.2782 36.167 48.9591 36.2815 42.6333C36.3977 36.2159 36.7709 35.758 43.0873 35.7531C67.751 35.7338 92.4159 35.8834 117.078 35.6658C124.432 35.6009 131.804 35.8961 138.966 36.9636C170.925 41.7272 192.902 60.1846 206.117 88.9728C217.933 114.711 218.215 141.383 207.908 167.633C192.567 206.703 164.746 231.165 121.928 234.16C95.5584 236.005 68.9724 234.806 42.4834 234.846C37.8518 234.853 36.9094 233.03 39.5755 229.368C48.9417 216.501 61.0623 207.599 76.9962 204.797C90.714 202.385 104.594 204.005 118.398 203.733C129.511 203.514 139.922 200.762 149.243 194.922C175.246 178.628 188.14 155.2 186.793 124.242C185.584 96.4653 164.055 70.5445 136.902 65.3096C114.309 60.954 91.3937 64.1301 68.6317 63.5491C65.9671 63.4811 64.2059 65.1662 64.1543 67.9438C64.0522 73.4398 64.0443 78.941 64.1666 84.4362C64.2313 87.3396 65.7912 89.1002 68.8746 89.1217C80.6898 89.2041 92.4859 90.1656 104.326 89.2569C113.284 88.5694 122.411 88.1537 131.17 90.3843C152.421 95.7964 164.403 115.204 161.358 138.446C158.864 157.483 142.438 173.027 123.57 174.627C107.591 175.982 91.601 174.955 75.6222 175.368C71.8033 175.467 68.0522 175.589 64.2643 176.621C46.7405 181.396 33.6707 192.48 22.4396 206.027C10.0729 220.944 1.27423 237.517 0.881069 257.486C0.740642 264.619 1.08084 264.825 8.14804 264.828C46.9767 264.841 85.8054 264.809 124.634 264.855C145.801 264.881 165.442 259.525 183.379 248.27C215.451 228.146 235.198 199.116 244.599 162.762C249.984 141.938 250.31 120.823 245.825 99.9262C240.693 76.0175 229.597 54.9075 212.625 37.0979C192.023 15.4805 166.945 2.04104 137.079 0.787955C103.975 -0.600999 70.7747 0.291381 37.6162 0.186332C35.3788 0.179245 33.4104 0.660079 31.725 2.35322C22.3215 11.7998 12.8798 21.2088 3.39447 30.5733C0.977916 32.9591 0.041974 35.6717 0.064602 39.0757C0.397763 89.1995 -0.706577 139.331 0.900387 189.447C0.959637 191.295 0.137432 193.509 2.43046 194.982C4.14883 194.779 5.37991 193.626 6.51864 192.447C15.3098 183.343 24.0544 174.193 32.8449 165.088C35.4268 162.414 36.3476 159.334 36.3372 155.594C36.2505 124.598 36.3123 93.602 36.3778 61.606Z" fill="white"/>
</svg>
